<svg width="34" height="34" viewBox="0 0 34 34" fill="none" xmlns="http://www.w3.org/2000/svg">
<circle cx="17" cy="17" r="17" fill="#00459B" fill-opacity="0.1"/>
<circle cx="17" cy="17" r="16.75" stroke="black" stroke-opacity="0.03" stroke-width="0.5"/>
<path d="M9.5957 24H12.7012L16.1582 12.7012H17.0273V9.9082H14.498L9.5957 24ZM12.2227 20.582H20.2012L19.4785 18.375H12.9453L12.2227 20.582ZM19.7715 24H22.8672L17.9648 9.9082H16.3047V12.7012L19.7715 24ZM26.1953 24.2246C26.6836 24.2246 27.0872 24.0651 27.4062 23.7461C27.7253 23.4271 27.8848 23.0299 27.8848 22.5547C27.8848 22.0794 27.7253 21.6855 27.4062 21.373C27.0872 21.054 26.6836 20.8945 26.1953 20.8945C25.7135 20.8945 25.3099 21.054 24.9844 21.373C24.6654 21.6855 24.5059 22.0794 24.5059 22.5547C24.5059 23.0299 24.6654 23.4271 24.9844 23.7461C25.3099 24.0651 25.7135 24.2246 26.1953 24.2246Z" fill="#3182F5"/>
</svg>
