<svg width="24" height="24" viewBox="0 0 24 24" fill="none" xmlns="http://www.w3.org/2000/svg">
<path fill-rule="evenodd" clip-rule="evenodd" d="M16.3344 2.7502H7.66543C4.64443 2.7502 2.75043 4.8892 2.75043 7.9162V16.0842C2.75043 19.1112 4.63543 21.2502 7.66543 21.2502H16.3334C19.3644 21.2502 21.2504 19.1112 21.2504 16.0842V7.9162C21.2504 4.8892 19.3644 2.7502 16.3344 2.7502Z" fill="#00459B" fill-opacity="0.1"/>
<path fill-rule="evenodd" clip-rule="evenodd" d="M16.3344 2.7502H7.66543C4.64443 2.7502 2.75043 4.8892 2.75043 7.9162V16.0842C2.75043 19.1112 4.63543 21.2502 7.66543 21.2502H16.3334C19.3644 21.2502 21.2504 19.1112 21.2504 16.0842V7.9162C21.2504 4.8892 19.3644 2.7502 16.3344 2.7502Z" stroke="#313131" stroke-width="1.5" stroke-linecap="round" stroke-linejoin="round"/>
<path d="M8.43994 12.0002L10.8139 14.3732L15.5599 9.6272" stroke="#313131" stroke-width="1.5" stroke-linecap="round" stroke-linejoin="round"/>
</svg>
