<svg width="24" height="24" viewBox="0 0 24 24" fill="none" xmlns="http://www.w3.org/2000/svg">
<circle cx="12" cy="8" r="4" fill="#00459B" fill-opacity="0.1"/>
<ellipse cx="12" cy="17" rx="6" ry="2" fill="#00459B" fill-opacity="0.1"/>
<path d="M17.8877 10.8967C19.2827 10.7007 20.3567 9.50473 20.3597 8.05573C20.3597 6.62773 19.3187 5.44373 17.9537 5.21973" stroke="#313131" stroke-width="1.5" stroke-linecap="round" stroke-linejoin="round"/>
<path d="M19.7285 14.2502C21.0795 14.4522 22.0225 14.9252 22.0225 15.9002C22.0225 16.5712 21.5785 17.0072 20.8605 17.2812" stroke="#313131" stroke-width="1.5" stroke-linecap="round" stroke-linejoin="round"/>
<path fill-rule="evenodd" clip-rule="evenodd" d="M11.8867 14.6638C8.6727 14.6638 5.9277 15.1508 5.9277 17.0958C5.9277 19.0398 8.6557 19.5408 11.8867 19.5408C15.1007 19.5408 17.8447 19.0588 17.8447 17.1128C17.8447 15.1668 15.1177 14.6638 11.8867 14.6638Z" stroke="#313131" stroke-width="1.5" stroke-linecap="round" stroke-linejoin="round"/>
<path fill-rule="evenodd" clip-rule="evenodd" d="M11.8867 11.8879C13.9957 11.8879 15.7057 10.1789 15.7057 8.06888C15.7057 5.95988 13.9957 4.24988 11.8867 4.24988C9.77772 4.24988 8.06772 5.95988 8.06772 8.06888C8.05972 10.1709 9.75672 11.8809 11.8587 11.8879H11.8867Z" stroke="#313131" stroke-width="1.5" stroke-linecap="round" stroke-linejoin="round"/>
<path d="M5.88481 10.8967C4.48881 10.7007 3.41581 9.50473 3.41281 8.05573C3.41281 6.62773 4.45381 5.44373 5.81881 5.21973" stroke="#313131" stroke-width="1.5" stroke-linecap="round" stroke-linejoin="round"/>
<path d="M4.04391 14.2502C2.69291 14.4522 1.74991 14.9252 1.74991 15.9002C1.74991 16.5712 2.19391 17.0072 2.91191 17.2812" stroke="#313131" stroke-width="1.5" stroke-linecap="round" stroke-linejoin="round"/>
</svg>
