<svg width="20" height="20" viewBox="0 0 20 20" fill="none" xmlns="http://www.w3.org/2000/svg">
<path fill-rule="evenodd" clip-rule="evenodd" d="M15.7098 0.790709C15.1108 0.589709 14.4808 0.500709 13.8498 0.500709C12.4598 0.490709 11.1108 0.950709 9.9998 1.79971C9.92449 1.74197 9.83517 1.68983 9.74943 1.63978L9.6998 1.61071C9.66102 1.58705 9.61021 1.55016 9.55378 1.50919L9.55376 1.50918C9.46469 1.44451 9.36162 1.36968 9.2698 1.32071L8.8898 1.15071C8.6898 1.04071 8.4808 0.960709 8.2598 0.889709C8.2398 0.870709 8.2098 0.849709 8.1698 0.830709H8.1108C7.5198 0.629709 6.9098 0.519709 6.2798 0.500709H6.1698C5.8898 0.500709 5.6108 0.519709 5.3298 0.560709H5.2098C4.9098 0.599709 4.6108 0.669709 4.3208 0.769709C0.589803 1.99071 -0.740197 6.04071 0.389803 9.58071C1.0298 11.3897 2.0608 13.0307 3.4008 14.3797C5.3498 16.2597 7.4808 17.9197 9.7698 19.3397L10.0298 19.5007L10.2798 19.3497C12.5608 17.9197 14.6798 16.2597 16.6108 14.3897C17.9598 13.0407 18.9898 11.3897 19.6198 9.58071C20.7308 6.04071 19.4008 1.99071 15.7098 0.790709Z" fill="#3182F5"/>
</svg>
