<svg width="24" height="24" viewBox="0 0 24 24" fill="none" xmlns="http://www.w3.org/2000/svg">
<path d="M4 14.5V10V9L7 8L10.5 6L12 5L14 6L14.5 8.5L15 13.5L13.5 18.5H11.5L7 16L4 14.5Z" fill="#00459B" fill-opacity="0.1"/>
<path fill-rule="evenodd" clip-rule="evenodd" d="M4.00185 12.0001C3.99906 13.2298 3.94419 14.907 4.70494 15.5339C5.41453 16.1187 5.91395 15.968 7.20945 16.0631C8.50587 16.1591 11.242 19.97 13.3512 18.7646C14.4393 17.9089 14.5202 16.1151 14.5202 12.0001C14.5202 7.88515 14.4393 6.09135 13.3512 5.23571C11.242 4.02938 8.50587 7.84121 7.20945 7.93717C5.91395 8.03225 5.41453 7.88157 4.70494 8.46635C3.94419 9.09328 3.99906 10.7705 4.00185 12.0001Z" stroke="#313131" stroke-width="1.5" stroke-linecap="round" stroke-linejoin="round"/>
<path d="M18.5813 8.31441C19.8926 10.6051 19.8926 13.4025 18.5813 15.686" stroke="#313131" stroke-width="1.5" stroke-linecap="round" stroke-linejoin="round"/>
</svg>
