<svg width="34" height="34" viewBox="0 0 34 34" fill="none" xmlns="http://www.w3.org/2000/svg">
<circle cx="17" cy="17" r="17" fill="#F2F3F5"/>
<circle cx="17" cy="17" r="16.75" stroke="black" stroke-opacity="0.03" stroke-width="0.5"/>
<path d="M16.7832 24.332C18.1764 24.332 19.3809 24.0326 20.3965 23.4336C21.4121 22.8346 22.1934 21.985 22.7402 20.8848C23.2936 19.778 23.5703 18.4694 23.5703 16.959V16.9395C23.5703 15.429 23.2936 14.1237 22.7402 13.0234C22.1868 11.9167 21.4023 11.0671 20.3867 10.4746C19.3711 9.87565 18.1699 9.57617 16.7832 9.57617C15.403 9.57617 14.2051 9.87565 13.1895 10.4746C12.1738 11.0671 11.3861 11.9134 10.8262 13.0137C10.2728 14.1139 9.99609 15.4225 9.99609 16.9395V16.959C9.99609 18.4694 10.2695 19.778 10.8164 20.8848C11.3698 21.985 12.1543 22.8346 13.1699 23.4336C14.1855 24.0326 15.39 24.332 16.7832 24.332ZM16.7832 21.832C16.015 21.832 15.3477 21.6335 14.7812 21.2363C14.2148 20.8327 13.7754 20.2663 13.4629 19.5371C13.1569 18.8079 13.0039 17.9486 13.0039 16.959V16.9395C13.0039 15.9434 13.1602 15.084 13.4727 14.3613C13.7852 13.6322 14.2246 13.069 14.791 12.6719C15.3574 12.2747 16.0215 12.0762 16.7832 12.0762C17.5514 12.0762 18.2188 12.2747 18.7852 12.6719C19.3516 13.069 19.7878 13.6322 20.0938 14.3613C20.4062 15.0905 20.5625 15.9499 20.5625 16.9395V16.959C20.5625 17.9421 20.4062 18.8014 20.0938 19.5371C19.7878 20.2663 19.3516 20.8327 18.7852 21.2363C18.2188 21.6335 17.5514 21.832 16.7832 21.832ZM20.3672 25.377H23.1113L18.5898 19.3613H15.8457L20.3672 25.377ZM26.293 24.2246C26.7812 24.2246 27.1849 24.0651 27.5039 23.7461C27.8229 23.4271 27.9824 23.0299 27.9824 22.5547C27.9824 22.0794 27.8229 21.6855 27.5039 21.373C27.1849 21.054 26.7812 20.8945 26.293 20.8945C25.8112 20.8945 25.4076 21.054 25.082 21.373C24.763 21.6855 24.6035 22.0794 24.6035 22.5547C24.6035 23.0299 24.763 23.4271 25.082 23.7461C25.4076 24.0651 25.8112 24.2246 26.293 24.2246Z" fill="#90949D"/>
</svg>
